<svg width="77" height="89" viewBox="0 0 77 89" fill="none" xmlns="http://www.w3.org/2000/svg">
<mask id="mask0_6223_23511" style="mask-type:luminance" maskUnits="userSpaceOnUse" x="0" y="0" width="77" height="89">
<path d="M76.6667 0H0.666748V89H76.6667V0Z" fill="white"/>
</mask>
<g mask="url(#mask0_6223_23511)">
<path d="M0.666748 86.977V46.5225H26.6668V88.9997H2.66675C2.13632 88.9997 1.62761 88.7866 1.25253 88.4073C0.877462 88.028 0.666748 87.5135 0.666748 86.977Z" fill="#5198ED"/>
<path d="M76.6668 86.977V46.5225H50.6667V88.9997H74.6668C75.1972 88.9997 75.7059 88.7866 76.081 88.4073C76.456 88.028 76.6668 87.5135 76.6668 86.977Z" fill="#5198ED"/>
<path d="M38.6667 14.1591C38.1363 14.1591 37.6276 13.946 37.2525 13.5666C36.8775 13.1873 36.6667 12.6728 36.6667 12.1364V2.02273C36.6667 1.48627 36.8775 0.971778 37.2525 0.592443C37.6276 0.213108 38.1363 0 38.6667 0C39.1972 0 39.7059 0.213108 40.081 0.592443C40.456 0.971778 40.6667 1.48627 40.6667 2.02273V12.1364C40.6667 12.6728 40.456 13.1873 40.081 13.5666C39.7059 13.946 39.1972 14.1591 38.6667 14.1591Z" fill="#5198ED"/>
<path d="M16.6667 42.4772V32.3635C16.6667 31.8271 16.456 31.3126 16.081 30.9333C15.7059 30.5539 15.1972 30.3408 14.6667 30.3408H10.6667C10.1363 30.3408 9.62761 30.5539 9.25253 30.9333C8.87746 31.3126 8.66675 31.8271 8.66675 32.3635V42.4772H16.6667Z" fill="#5198ED"/>
<path d="M60.6667 42.4772V32.3635C60.6667 31.8271 60.8775 31.3126 61.2525 30.9333C61.6276 30.5539 62.1363 30.3408 62.6667 30.3408H66.6667C67.1972 30.3408 67.7059 30.5539 68.081 30.9333C68.456 31.3126 68.6667 31.8271 68.6667 32.3635V42.4772H60.6667Z" fill="#5198ED"/>
<path d="M32.6667 20.2269V12.136C32.6667 11.5995 32.8775 11.0851 33.2525 10.7057C33.6276 10.3264 34.1363 10.1133 34.6667 10.1133H42.6667C43.1972 10.1133 43.7059 10.3264 44.081 10.7057C44.456 11.0851 44.6667 11.5995 44.6667 12.136V20.2269H32.6667Z" fill="#91C8FF"/>
<path d="M0.666748 50.568V40.4544C0.666748 39.9179 0.877462 39.4034 1.25253 39.0241C1.62761 38.6447 2.13632 38.4316 2.66675 38.4316H26.6668V50.568H0.666748Z" fill="#91C8FF"/>
<path d="M76.6668 50.568V40.4544C76.6668 39.9179 76.456 39.4034 76.081 39.0241C75.7059 38.6447 75.1972 38.4316 74.6668 38.4316H50.6667V50.568H76.6668Z" fill="#91C8FF"/>
<path d="M48.6667 28.3177V20.2268C48.6667 19.6904 48.456 19.1759 48.081 18.7965C47.7059 18.4172 47.1972 18.2041 46.6667 18.2041H30.6667C30.1363 18.2041 29.6276 18.4172 29.2525 18.7965C28.8775 19.1759 28.6667 19.6904 28.6667 20.2268V28.3177H48.6667Z" fill="#5198ED"/>
<path d="M24.6667 89.0004V28.3186C24.6667 27.7822 24.8775 27.2677 25.2525 26.8883C25.6276 26.509 26.1363 26.2959 26.6667 26.2959H50.6667C51.1972 26.2959 51.7059 26.509 52.081 26.8883C52.456 27.2677 52.6667 27.7822 52.6667 28.3186V89.0004H24.6667Z" fill="#266ACE"/>
<path d="M16.6667 60.6817C17.1972 60.6817 17.7059 60.4686 18.081 60.0893C18.456 59.71 18.6667 59.1955 18.6667 58.659V54.6135C18.6667 54.0771 18.456 53.5626 18.081 53.1833C17.7059 52.8039 17.1972 52.5908 16.6667 52.5908C16.1363 52.5908 15.6276 52.8039 15.2525 53.1833C14.8775 53.5626 14.6667 54.0771 14.6667 54.6135V58.659C14.6667 59.1955 14.8775 59.71 15.2525 60.0893C15.6276 60.4686 16.1363 60.6817 16.6667 60.6817Z" fill="#C0D7F5"/>
<path d="M16.6667 72.8184C17.1972 72.8184 17.7059 72.6053 18.081 72.226C18.456 71.8467 18.6667 71.3322 18.6667 70.7957V66.7503C18.6667 66.2138 18.456 65.6993 18.081 65.32C17.7059 64.9406 17.1972 64.7275 16.6667 64.7275C16.1363 64.7275 15.6276 64.9406 15.2525 65.32C14.8775 65.6993 14.6667 66.2138 14.6667 66.7503V70.7957C14.6667 71.3322 14.8775 71.8467 15.2525 72.226C15.6276 72.6053 16.1363 72.8184 16.6667 72.8184Z" fill="#C0D7F5"/>
<path d="M8.66675 60.6817C9.19718 60.6817 9.70589 60.4686 10.081 60.0893C10.456 59.71 10.6667 59.1955 10.6667 58.659V54.6135C10.6667 54.0771 10.456 53.5626 10.081 53.1833C9.70589 52.8039 9.19718 52.5908 8.66675 52.5908C8.13632 52.5908 7.62761 52.8039 7.25253 53.1833C6.87746 53.5626 6.66675 54.0771 6.66675 54.6135V58.659C6.66675 59.1955 6.87746 59.71 7.25253 60.0893C7.62761 60.4686 8.13632 60.6817 8.66675 60.6817Z" fill="#C0D7F5"/>
<path d="M8.66675 72.8184C9.19718 72.8184 9.70589 72.6053 10.081 72.226C10.456 71.8467 10.6667 71.3322 10.6667 70.7957V66.7503C10.6667 66.2138 10.456 65.6993 10.081 65.32C9.70589 64.9406 9.19718 64.7275 8.66675 64.7275C8.13632 64.7275 7.62761 64.9406 7.25253 65.32C6.87746 65.6993 6.66675 66.2138 6.66675 66.7503V70.7957C6.66675 71.3322 6.87746 71.8467 7.25253 72.226C7.62761 72.6053 8.13632 72.8184 8.66675 72.8184Z" fill="#C0D7F5"/>
<path d="M16.6667 84.9542C17.1972 84.9542 17.7059 84.7411 18.081 84.3617C18.456 83.9824 18.6667 83.4679 18.6667 82.9315V78.886C18.6667 78.3495 18.456 77.8351 18.081 77.4557C17.7059 77.0764 17.1972 76.8633 16.6667 76.8633C16.1363 76.8633 15.6276 77.0764 15.2525 77.4557C14.8775 77.8351 14.6667 78.3495 14.6667 78.886V82.9315C14.6667 83.4679 14.8775 83.9824 15.2525 84.3617C15.6276 84.7411 16.1363 84.9542 16.6667 84.9542Z" fill="#C0D7F5"/>
<path d="M8.66675 84.9542C9.19718 84.9542 9.70589 84.7411 10.081 84.3617C10.456 83.9824 10.6667 83.4679 10.6667 82.9315V78.886C10.6667 78.3495 10.456 77.8351 10.081 77.4557C9.70589 77.0764 9.19718 76.8633 8.66675 76.8633C8.13632 76.8633 7.62761 77.0764 7.25253 77.4557C6.87746 77.8351 6.66675 78.3495 6.66675 78.886V82.9315C6.66675 83.4679 6.87746 83.9824 7.25253 84.3617C7.62761 84.7411 8.13632 84.9542 8.66675 84.9542Z" fill="#C0D7F5"/>
<path d="M44.6667 36.4087H32.6667C32.1363 36.4087 31.6276 36.1956 31.2525 35.8163C30.8775 35.437 30.6667 34.9225 30.6667 34.386C30.6667 33.8495 30.8775 33.3351 31.2525 32.9557C31.6276 32.5764 32.1363 32.3633 32.6667 32.3633H44.6667C45.1972 32.3633 45.7059 32.5764 46.081 32.9557C46.456 33.3351 46.6667 33.8495 46.6667 34.386C46.6667 34.9225 46.456 35.437 46.081 35.8163C45.7059 36.1956 45.1972 36.4087 44.6667 36.4087Z" fill="#C0D7F5"/>
<path d="M44.6667 44.4996H32.6667C32.1363 44.4996 31.6276 44.2864 31.2525 43.9071C30.8775 43.5278 30.6667 43.0133 30.6667 42.4768C30.6667 41.9404 30.8775 41.4259 31.2525 41.0465C31.6276 40.6672 32.1363 40.4541 32.6667 40.4541H44.6667C45.1972 40.4541 45.7059 40.6672 46.081 41.0465C46.456 41.4259 46.6667 41.9404 46.6667 42.4768C46.6667 43.0133 46.456 43.5278 46.081 43.9071C45.7059 44.2864 45.1972 44.4996 44.6667 44.4996Z" fill="#C0D7F5"/>
<path d="M44.6667 52.5914H32.6667C32.1363 52.5914 31.6276 52.3782 31.2525 51.9989C30.8775 51.6196 30.6667 51.1051 30.6667 50.5686C30.6667 50.0322 30.8775 49.5177 31.2525 49.1383C31.6276 48.759 32.1363 48.5459 32.6667 48.5459H44.6667C45.1972 48.5459 45.7059 48.759 46.081 49.1383C46.456 49.5177 46.6667 50.0322 46.6667 50.5686C46.6667 51.1051 46.456 51.6196 46.081 51.9989C45.7059 52.3782 45.1972 52.5914 44.6667 52.5914Z" fill="#C0D7F5"/>
<path d="M44.6667 60.6822H32.6667C32.1363 60.6822 31.6276 60.4691 31.2525 60.0897C30.8775 59.7104 30.6667 59.1959 30.6667 58.6594C30.6667 58.123 30.8775 57.6085 31.2525 57.2292C31.6276 56.8498 32.1363 56.6367 32.6667 56.6367H44.6667C45.1972 56.6367 45.7059 56.8498 46.081 57.2292C46.456 57.6085 46.6667 58.123 46.6667 58.6594C46.6667 59.1959 46.456 59.7104 46.081 60.0897C45.7059 60.4691 45.1972 60.6822 44.6667 60.6822Z" fill="#C0D7F5"/>
<path d="M44.6667 68.773H32.6667C32.1363 68.773 31.6276 68.5599 31.2525 68.1806C30.8775 67.8012 30.6667 67.2867 30.6667 66.7503C30.6667 66.2138 30.8775 65.6993 31.2525 65.32C31.6276 64.9406 32.1363 64.7275 32.6667 64.7275H44.6667C45.1972 64.7275 45.7059 64.9406 46.081 65.32C46.456 65.6993 46.6667 66.2138 46.6667 66.7503C46.6667 67.2867 46.456 67.8012 46.081 68.1806C45.7059 68.5599 45.1972 68.773 44.6667 68.773Z" fill="#C0D7F5"/>
<path d="M44.6667 76.8638H32.6667C32.1363 76.8638 31.6276 76.6507 31.2525 76.2714C30.8775 75.892 30.6667 75.3775 30.6667 74.8411C30.6667 74.3046 30.8775 73.7901 31.2525 73.4108C31.6276 73.0315 32.1363 72.8184 32.6667 72.8184H44.6667C45.1972 72.8184 45.7059 73.0315 46.081 73.4108C46.456 73.7901 46.6667 74.3046 46.6667 74.8411C46.6667 75.3775 46.456 75.892 46.081 76.2714C45.7059 76.6507 45.1972 76.8638 44.6667 76.8638Z" fill="#C0D7F5"/>
<path d="M44.6667 84.9546H32.6667C32.1363 84.9546 31.6276 84.7415 31.2525 84.3622C30.8775 83.9829 30.6667 83.4684 30.6667 82.9319C30.6667 82.3954 30.8775 81.881 31.2525 81.5016C31.6276 81.1223 32.1363 80.9092 32.6667 80.9092H44.6667C45.1972 80.9092 45.7059 81.1223 46.081 81.5016C46.456 81.881 46.6667 82.3954 46.6667 82.9319C46.6667 83.4684 46.456 83.9829 46.081 84.3622C45.7059 84.7415 45.1972 84.9546 44.6667 84.9546Z" fill="#C0D7F5"/>
<path d="M60.6667 60.6817C60.1363 60.6817 59.6276 60.4686 59.2525 60.0893C58.8775 59.71 58.6667 59.1955 58.6667 58.659V54.6135C58.6667 54.0771 58.8775 53.5626 59.2525 53.1833C59.6276 52.8039 60.1363 52.5908 60.6667 52.5908C61.1972 52.5908 61.7059 52.8039 62.081 53.1833C62.456 53.5626 62.6667 54.0771 62.6667 54.6135V58.659C62.6667 59.1955 62.456 59.71 62.081 60.0893C61.7059 60.4686 61.1972 60.6817 60.6667 60.6817Z" fill="#C0D7F5"/>
<path d="M60.6667 72.8184C60.1363 72.8184 59.6276 72.6053 59.2525 72.226C58.8775 71.8467 58.6667 71.3322 58.6667 70.7957V66.7503C58.6667 66.2138 58.8775 65.6993 59.2525 65.32C59.6276 64.9406 60.1363 64.7275 60.6667 64.7275C61.1972 64.7275 61.7059 64.9406 62.081 65.32C62.456 65.6993 62.6667 66.2138 62.6667 66.7503V70.7957C62.6667 71.3322 62.456 71.8467 62.081 72.226C61.7059 72.6053 61.1972 72.8184 60.6667 72.8184Z" fill="#C0D7F5"/>
<path d="M68.6667 60.6817C68.1363 60.6817 67.6276 60.4686 67.2525 60.0893C66.8775 59.71 66.6667 59.1955 66.6667 58.659V54.6135C66.6667 54.0771 66.8775 53.5626 67.2525 53.1833C67.6276 52.8039 68.1363 52.5908 68.6667 52.5908C69.1972 52.5908 69.7059 52.8039 70.081 53.1833C70.456 53.5626 70.6667 54.0771 70.6667 54.6135V58.659C70.6667 59.1955 70.456 59.71 70.081 60.0893C69.7059 60.4686 69.1972 60.6817 68.6667 60.6817Z" fill="#C0D7F5"/>
<path d="M68.6667 72.8184C68.1363 72.8184 67.6276 72.6053 67.2525 72.226C66.8775 71.8467 66.6667 71.3322 66.6667 70.7957V66.7503C66.6667 66.2138 66.8775 65.6993 67.2525 65.32C67.6276 64.9406 68.1363 64.7275 68.6667 64.7275C69.1972 64.7275 69.7059 64.9406 70.081 65.32C70.456 65.6993 70.6667 66.2138 70.6667 66.7503V70.7957C70.6667 71.3322 70.456 71.8467 70.081 72.226C69.7059 72.6053 69.1972 72.8184 68.6667 72.8184Z" fill="#C0D7F5"/>
<path d="M60.6667 84.9542C60.1363 84.9542 59.6276 84.7411 59.2525 84.3617C58.8775 83.9824 58.6667 83.4679 58.6667 82.9315V78.886C58.6667 78.3495 58.8775 77.8351 59.2525 77.4557C59.6276 77.0764 60.1363 76.8633 60.6667 76.8633C61.1972 76.8633 61.7059 77.0764 62.081 77.4557C62.456 77.8351 62.6667 78.3495 62.6667 78.886V82.9315C62.6667 83.4679 62.456 83.9824 62.081 84.3617C61.7059 84.7411 61.1972 84.9542 60.6667 84.9542Z" fill="#C0D7F5"/>
<path d="M68.6667 84.9542C68.1363 84.9542 67.6276 84.7411 67.2525 84.3617C66.8775 83.9824 66.6667 83.4679 66.6667 82.9315V78.886C66.6667 78.3495 66.8775 77.8351 67.2525 77.4557C67.6276 77.0764 68.1363 76.8633 68.6667 76.8633C69.1972 76.8633 69.7059 77.0764 70.081 77.4557C70.456 77.8351 70.6667 78.3495 70.6667 78.886V82.9315C70.6667 83.4679 70.456 83.9824 70.081 84.3617C69.7059 84.7411 69.1972 84.9542 68.6667 84.9542Z" fill="#C0D7F5"/>
</g>
</svg>
