<svg width="114" height="111" viewBox="0 0 114 111" fill="none" xmlns="http://www.w3.org/2000/svg">
<g clip-path="url(#clip0_6223_23649)">
<mask id="mask0_6223_23649" style="mask-type:luminance" maskUnits="userSpaceOnUse" x="0" y="0" width="114" height="111">
<path d="M113.5 0H0.5V111H113.5V0Z" fill="white"/>
</mask>
<g mask="url(#mask0_6223_23649)">
<path d="M89.6752 55.8914V49.2435L67.8101 45.3228V36.031H71.2007V29.8195H67.5394C66.8944 25.6344 65.0845 21.713 62.3148 18.4998C59.545 15.2867 55.9263 12.9103 51.8689 11.6403V8.78477H47.8723L46.9634 0H43.2118L42.3029 8.78477H38.3063V11.6403C34.2469 12.909 30.6259 15.2846 27.8538 18.4978C25.0818 21.711 23.2697 25.6332 22.623 29.8195H18.9809V36.031H22.3651V45.3228L0.5 49.2435V55.8914H6.05009V87.6552H0.5V94.3288H89.6752V87.6552H84.1252V55.8914H89.6752Z" fill="#266ACE"/>
<path d="M60.6163 37.1538H53.7512V44.1675H60.6163V37.1538Z" fill="#C0D7F5"/>
<path d="M48.517 37.1538H41.6583V44.1675H48.517V37.1538Z" fill="#C0D7F5"/>
<path d="M36.424 37.1538H29.559V44.1675H36.424V37.1538Z" fill="#C0D7F5"/>
<path d="M49.5225 68.6482H55.8848V59.3179H64.7546V68.6482H71.1104V56.5587L45.0876 51.9385L19.0647 56.5587V87.6487H25.4205V59.3179H34.2904V87.6487H40.6527V59.3179H49.5225V68.6482Z" fill="#C0D7F5"/>
<path d="M96.1019 100.553C96.4629 101.229 96.5691 102.012 96.4012 102.759C96.2333 103.506 95.8025 104.169 95.1866 104.628L92.2665 106.797L90.9773 107.792L84.5312 111H70.1822C69.6355 111 69.0979 110.862 68.6198 110.598C68.1416 110.334 67.7388 109.953 67.4491 109.492L60.339 98.179H52.2878V75.7197H82.8939L94.1681 93.3599L94.8127 98.1726L96.1019 100.553Z" fill="#91C8FF"/>
<path d="M78.2528 111.013H74.6624L70.1501 102.112C70.0549 101.925 69.9976 101.72 69.9817 101.511C69.9658 101.301 69.9915 101.091 70.0574 100.891C70.1232 100.692 70.2279 100.507 70.3655 100.348C70.5031 100.188 70.6708 100.057 70.8592 99.9627C71.0475 99.8679 71.2528 99.8109 71.4632 99.7951C71.6737 99.7792 71.8852 99.8048 72.0857 99.8704C72.2863 99.9359 72.4718 100.04 72.6319 100.177C72.792 100.314 72.9234 100.481 73.0186 100.669L78.2528 111.013Z" fill="#5198ED"/>
<path d="M85.9558 110.275L84.5054 111.013H82.7521L78.1883 100.412C78.0173 100.021 78.0096 99.5777 78.1667 99.1806C78.3239 98.7835 78.6331 98.4648 79.0263 98.2946C79.4195 98.1244 79.8645 98.1167 80.2634 98.2731C80.6624 98.4296 80.9825 98.7374 81.1535 99.1288L85.9558 110.275Z" fill="#5198ED"/>
<path d="M92.2666 106.797L90.9774 107.792L89.527 108.517L84.6602 97.191C84.4892 96.7996 84.4815 96.3566 84.6386 95.9594C84.7958 95.5623 85.105 95.2436 85.4982 95.0734C85.8914 94.9032 86.3364 94.8955 86.7353 95.0519C87.1343 95.2084 87.4544 95.5162 87.6254 95.9076L92.2666 106.797Z" fill="#5198ED"/>
<path d="M103.837 78.9282L93.3237 72.9347C92.837 72.6575 92.2859 72.5115 91.7251 72.5112H77.9305C77.4713 72.5117 77.0175 72.6098 76.5995 72.7991C76.1815 72.9883 75.8089 73.2643 75.5067 73.6085L65.193 85.3387L67.0753 87.2188C67.6739 87.8154 68.3849 88.2888 69.1674 88.6117C69.9499 88.9346 70.7887 89.1008 71.6359 89.1008C72.483 89.1008 73.3218 88.9346 74.1043 88.6117C74.8869 88.2888 75.5978 87.8154 76.1965 87.2188L81.3018 82.1302L87.7479 85.3387L94.7677 98.1725H107.08V78.9282H103.837Z" fill="#5198ED"/>
<path d="M47.4533 72.5112H53.8994C54.3268 72.5112 54.7367 72.6802 55.0389 72.9811C55.3412 73.2819 55.5109 73.69 55.5109 74.1155V102.992C55.5109 103.417 55.3412 103.825 55.0389 104.126C54.7367 104.427 54.3268 104.596 53.8994 104.596H47.4533C47.0259 104.596 46.616 104.427 46.3138 104.126C46.0116 103.825 45.8418 103.417 45.8418 102.992V74.1155C45.8418 73.69 46.0116 73.2819 46.3138 72.9811C46.616 72.6802 47.0259 72.5112 47.4533 72.5112Z" fill="#5198ED"/>
<path d="M111.888 72.5112H105.442C105.015 72.5112 104.605 72.6802 104.303 72.9811C104.001 73.2819 103.831 73.69 103.831 74.1155V102.992C103.831 103.417 104.001 103.825 104.303 104.126C104.605 104.427 105.015 104.596 105.442 104.596H111.888C112.316 104.596 112.726 104.427 113.028 104.126C113.33 103.825 113.5 103.417 113.5 102.992V74.1155C113.5 73.69 113.33 73.2819 113.028 72.9811C112.726 72.6802 112.316 72.5112 111.888 72.5112Z" fill="#5198ED"/>
</g>
</g>
<defs>
<clipPath id="clip0_6223_23649">
<rect width="113" height="111" fill="white" transform="translate(0.5)"/>
</clipPath>
</defs>
</svg>
