<svg width="68" height="90" viewBox="0 0 68 90" fill="none" xmlns="http://www.w3.org/2000/svg">
<g clip-path="url(#clip0_6223_23586)">
<mask id="mask0_6223_23586" style="mask-type:luminance" maskUnits="userSpaceOnUse" x="0" y="0" width="68" height="90">
<path d="M68 0H0V90H68V0Z" fill="white"/>
</mask>
<g mask="url(#mask0_6223_23586)">
<path d="M49.4212 15.9842C49.4212 19.0241 48.5169 21.9958 46.8227 24.5234C45.1284 27.0511 42.7203 29.0213 39.9029 30.1849C37.0854 31.3485 33.985 31.6533 30.9938 31.0607C28.0025 30.4682 25.2547 29.0048 23.0977 26.8557C20.9408 24.7067 19.4715 21.9684 18.8757 18.987C18.28 16.0057 18.5844 12.9152 19.7506 10.1063C20.9168 7.29747 22.8924 4.89633 25.4275 3.20651C27.9627 1.5167 30.9436 0.614083 33.9934 0.612794C36.0191 0.611938 38.0251 1.0089 39.8968 1.781C41.7686 2.55311 43.4694 3.68522 44.9021 5.11267C46.3347 6.54013 47.4713 8.23495 48.2467 10.1003C49.0221 11.9657 49.4212 13.9651 49.4212 15.9842Z" fill="#C0D7F5"/>
<path d="M33.9936 0.000182066C33.9936 0.000182066 17.1472 -0.866456 18.5462 19.0532C18.5462 19.0532 26.1751 15.9841 27.4237 10.2239C29.7117 15.9841 49.4606 19.0532 49.4606 19.0532C50.853 -0.866456 33.9936 0.000182066 33.9936 0.000182066Z" fill="#266ACE"/>
<path d="M47.0679 43.0845H20.9191C15.371 43.0845 10.0501 45.2813 6.12705 49.1917C2.20397 53.1021 0 58.4058 0 63.9359L0 90.0002H67.9869V63.9359C67.9869 58.4058 65.783 53.1021 61.8599 49.1917C57.9368 45.2813 52.616 43.0845 47.0679 43.0845Z" fill="#5198ED"/>
</g>
</g>
<defs>
<clipPath id="clip0_6223_23586">
<rect width="68" height="90" fill="white"/>
</clipPath>
</defs>
</svg>
