<svg width="118" height="114" viewBox="0 0 118 114" fill="none" xmlns="http://www.w3.org/2000/svg">
<g clip-path="url(#clip0_6223_23623)">
<mask id="mask0_6223_23623" style="mask-type:luminance" maskUnits="userSpaceOnUse" x="0" y="0" width="118" height="114">
<path d="M117.5 0H0.5V114H117.5V0Z" fill="white"/>
</mask>
<g mask="url(#mask0_6223_23623)">
<path d="M33.032 80.6941C32.7088 80.6946 32.389 80.629 32.0925 80.5013C31.796 80.3736 31.5292 80.1866 31.3086 79.952C26.6058 74.9501 23.3963 68.7472 22.039 62.0369C21.978 61.7357 21.9772 61.4255 22.0369 61.1241C22.0965 60.8226 22.2154 60.5358 22.3866 60.28C22.5578 60.0241 22.7781 59.8043 23.0348 59.6331C23.2916 59.4618 23.5797 59.3425 23.8829 59.2818C24.1861 59.2212 24.4983 59.2205 24.8017 59.2798C25.1052 59.339 25.3939 59.4571 25.6514 59.6272C25.9089 59.7973 26.1302 60.0161 26.3026 60.2711C26.475 60.5262 26.5951 60.8125 26.6562 61.1137C27.8381 66.9753 30.6407 72.3939 34.7495 76.7616C35.0622 77.0944 35.2704 77.5107 35.3483 77.9593C35.4263 78.408 35.3706 78.8694 35.1882 79.2871C35.0058 79.7048 34.7046 80.0604 34.3215 80.3104C33.9385 80.5603 33.4903 80.6937 33.032 80.6941Z" fill="#91C8FF"/>
<path d="M84.7916 80.694C84.3328 80.6948 83.8838 80.5622 83.4998 80.3127C83.1159 80.0632 82.8138 79.7076 82.6306 79.2897C82.4475 78.8719 82.3913 78.4099 82.4691 77.9607C82.5468 77.5115 82.7551 77.0947 83.0682 76.7616C87.1766 72.3928 89.9808 66.9749 91.1674 61.1136C91.2219 60.8066 91.3376 60.5136 91.5078 60.2517C91.678 59.9898 91.8992 59.7644 92.1584 59.5887C92.4176 59.413 92.7096 59.2906 93.0171 59.2287C93.3247 59.1668 93.6416 59.1666 93.9492 59.2282C94.2568 59.2898 94.5489 59.4119 94.8083 59.5873C95.0677 59.7627 95.2891 59.9879 95.4596 60.2496C95.6301 60.5113 95.7461 60.8042 95.8009 61.1112C95.8557 61.4181 95.8482 61.7328 95.7787 62.0368C94.4214 68.7471 91.2119 74.9501 86.509 79.952C86.2892 80.1859 86.0233 80.3724 85.7278 80.5001C85.4324 80.6277 85.1137 80.6938 84.7916 80.694Z" fill="#91C8FF"/>
<path d="M75.7866 26.119C75.3894 26.1183 74.9989 26.0178 74.6514 25.8268C69.8113 23.2576 64.4083 21.9135 58.9206 21.9135C53.4329 21.9135 48.0299 23.2576 43.1899 25.8268C42.9191 25.9823 42.6199 26.0825 42.3096 26.1218C41.9994 26.161 41.6844 26.1384 41.3831 26.0553C41.0818 25.9721 40.8002 25.8302 40.5547 25.6376C40.3093 25.4451 40.1049 25.2059 39.9536 24.9341C39.8023 24.6622 39.7071 24.363 39.6735 24.0542C39.6399 23.7453 39.6687 23.4329 39.7581 23.1352C39.8474 22.8375 39.9957 22.5604 40.1941 22.3203C40.3925 22.0802 40.6371 21.8817 40.9136 21.7366C51.8066 15.7766 66.0111 15.7766 76.9159 21.7366C77.3715 21.9871 77.7307 22.3806 77.937 22.8556C78.1434 23.3306 78.1853 23.8602 78.0561 24.3614C77.927 24.8626 77.6341 25.307 77.2234 25.6251C76.8127 25.9432 76.3073 26.1169 75.7866 26.119Z" fill="#91C8FF"/>
<path d="M58.953 79.21C54.3282 79.2115 49.8933 81.0373 46.6232 84.286C43.353 87.5348 41.5151 91.9405 41.5135 96.5349V102.314H76.3747V96.5349C76.3747 94.2598 75.9237 92.0069 75.0472 89.9049C74.1708 87.803 72.8863 85.8931 71.2669 84.2843C69.6475 82.6756 67.725 81.3994 65.6091 80.5287C63.4933 79.6581 61.2255 79.21 58.9353 79.21" fill="#266ACE"/>
<path d="M17.9394 27.8311C13.3142 27.8311 8.87842 29.6564 5.60789 32.9054C2.33736 36.1545 0.5 40.5612 0.5 45.156L0.5 50.9291H35.3788V45.156C35.3796 42.8807 34.9291 40.6274 34.0529 38.5251C33.1768 36.4228 31.8922 34.5126 30.2727 32.9037C28.6531 31.2948 26.7303 30.0187 24.6141 29.1483C22.4979 28.2779 20.2298 27.8303 17.9394 27.8311Z" fill="#5198ED"/>
<path d="M7.27583 11.9434H8.34631C8.29019 12.3677 8.26072 12.7951 8.25808 13.2231C8.25808 15.7739 9.27808 18.2202 11.0937 20.0239C12.9093 21.8276 15.3718 22.8409 17.9395 22.8409C20.5071 22.8409 22.9696 21.8276 24.7852 20.0239C26.6008 18.2202 27.6208 15.7739 27.6208 13.2231C27.6289 12.7955 27.6073 12.368 27.5561 11.9434H28.6325C28.9351 11.9434 29.2254 11.824 29.4394 11.6114C29.6533 11.3988 29.7736 11.1105 29.7736 10.8098C29.7736 10.5092 29.6533 10.2209 29.4394 10.0083C29.2254 9.7957 28.9351 9.67627 28.6325 9.67627H28.5854C28.3214 8.16489 27.7337 6.72749 26.862 5.46132C25.9904 4.19516 24.8551 3.12978 23.533 2.33726V7.5961H20.3098V7.53183V0H15.6044V7.54936V7.5961H12.3341V2.33726C11.0223 3.13064 9.89602 4.19317 9.03079 5.45379C8.16555 6.7144 7.58126 8.14403 7.317 9.64705H7.27583C6.9732 9.64705 6.68297 9.76648 6.46897 9.97907C6.25498 10.1917 6.13477 10.48 6.13477 10.7806C6.13477 11.0813 6.25498 11.3696 6.46897 11.5822C6.68297 11.7948 6.9732 11.9142 7.27583 11.9142" fill="#5198ED"/>
<path d="M100.061 27.8311C95.4353 27.8311 90.9995 29.6564 87.729 32.9054C84.4585 36.1545 82.6211 40.5612 82.6211 45.156V50.9291H117.5V45.156C117.501 42.8807 117.05 40.6274 116.174 38.5251C115.298 36.4228 114.013 34.5126 112.394 32.9037C110.774 31.2948 108.851 30.0187 106.735 29.1483C104.619 28.2779 102.351 27.8303 100.061 27.8311Z" fill="#91C8FF"/>
<path d="M89.397 11.9434H90.491C90.4349 12.3677 90.4054 12.7951 90.4028 13.2231C90.4028 14.4861 90.6532 15.7368 91.1397 16.9037C91.6263 18.0705 92.3394 19.1308 93.2384 20.0239C94.1374 20.917 95.2047 21.6254 96.3793 22.1088C97.5539 22.5921 98.8128 22.8409 100.084 22.8409C101.356 22.8409 102.614 22.5921 103.789 22.1088C104.964 21.6254 106.031 20.917 106.93 20.0239C107.829 19.1308 108.542 18.0705 109.029 16.9037C109.515 15.7368 109.766 14.4861 109.766 13.2231C109.766 12.795 109.736 12.3674 109.677 11.9434H110.754C111.056 11.9434 111.347 11.824 111.561 11.6114C111.775 11.3988 111.895 11.1105 111.895 10.8098C111.895 10.5092 111.775 10.2209 111.561 10.0083C111.347 9.7957 111.056 9.67627 110.754 9.67627H110.707C110.444 8.16514 109.857 6.72776 108.987 5.46153C108.116 4.19529 106.982 3.1298 105.66 2.33726V7.5961H102.431V7.53183V0H97.7256V7.54936V7.5961H94.5024V2.33726C93.1889 3.12944 92.0611 4.19154 91.1948 5.45229C90.3285 6.71304 89.7436 8.14328 89.4793 9.64705H89.4382C89.1356 9.64705 88.8453 9.76648 88.6313 9.97907C88.4173 10.1917 88.2971 10.48 88.2971 10.7806C88.2971 11.0813 88.4173 11.3696 88.6313 11.5822C88.8453 11.7948 89.1356 11.9142 89.4382 11.9142" fill="#91C8FF"/>
<path d="M84.4563 83.5102C83.5211 83.3758 81.6272 83.1304 79.2568 82.9902C78.004 82.9201 76.7747 82.8792 75.5866 82.8792C73.1216 82.8647 70.6599 83.0602 68.2285 83.4635C64.6995 84.0478 61.4586 85.269 59.5235 86.8058C57.5884 85.269 54.3358 84.0712 50.8185 83.4635C48.3871 83.0602 45.9254 82.8647 43.4604 82.8792C42.2841 82.8792 41.0489 82.9201 39.7902 82.9902C37.4375 83.1304 35.52 83.3758 34.5848 83.5102C36.0435 86.9402 39.402 98.3694 35.7318 112.726C38.962 111.244 42.4787 110.481 46.0366 110.488C50.7712 110.507 55.4243 111.713 59.5647 113.994C63.7056 111.714 68.3584 110.508 73.0927 110.488C76.6506 110.481 80.1671 111.245 83.3976 112.726C78.9804 99.9762 83.0094 87.1505 84.5386 83.5102" fill="#5198ED"/>
<path d="M81.2154 93.9404C80.158 93.9404 79.1243 94.2519 78.2451 94.8356C77.3658 95.4192 76.6805 96.2487 76.2759 97.2193C75.8712 98.1898 75.7653 99.2578 75.9716 100.288C76.1779 101.318 76.6871 102.265 77.4349 103.008C78.1826 103.75 79.1352 104.256 80.1724 104.461C81.2095 104.666 82.2845 104.561 83.2614 104.159C84.2384 103.757 85.0734 103.076 85.6609 102.203C86.2484 101.329 86.5619 100.302 86.5619 99.2519C86.5619 97.8432 85.9987 96.4922 84.996 95.4961C83.9933 94.5 82.6334 93.9404 81.2154 93.9404Z" fill="#266ACE"/>
<path d="M43.1369 99.2519C43.1311 98.2027 42.8126 97.1787 42.2216 96.3091C41.6306 95.4395 40.7936 94.7632 39.8161 94.3657C38.8387 93.9682 37.7646 93.8671 36.7294 94.0754C35.6943 94.2836 34.7444 94.7918 33.9996 95.5357C33.2548 96.2797 32.7485 97.2261 32.5446 98.2557C32.3406 99.2852 32.4482 100.352 32.8537 101.32C33.2593 102.289 33.9445 103.117 34.8231 103.699C35.7017 104.282 36.7342 104.593 37.7904 104.593C39.2079 104.591 40.5669 104.031 41.5693 103.035C42.5716 102.039 43.1354 100.689 43.1369 99.2812" fill="#266ACE"/>
<path d="M69.7519 61.1485H69.7048C69.441 59.6438 68.8557 58.2128 67.9882 56.9519C67.1207 55.6909 65.9912 54.6293 64.6759 53.8387V59.0975H61.4527V59.0157V51.478H56.7473V59.0157V59.08H53.477V53.8211C52.1656 54.6151 51.0398 55.6778 50.1746 56.9383C49.3095 58.1988 48.7249 59.6282 48.4599 61.1309H48.4187C48.2616 61.1197 48.1038 61.1408 47.9553 61.1928C47.8067 61.2449 47.6705 61.3268 47.5552 61.4334C47.4399 61.54 47.3479 61.6691 47.285 61.8126C47.2222 61.9561 47.1897 62.1109 47.1897 62.2674C47.1897 62.4239 47.2222 62.5787 47.285 62.7222C47.3479 62.8657 47.4399 62.9948 47.5552 63.1014C47.6705 63.2081 47.8067 63.29 47.9553 63.342C48.1038 63.394 48.2616 63.4151 48.4187 63.4039H49.4892C49.4329 63.8282 49.4034 64.2556 49.401 64.6836C49.401 67.2344 50.421 69.6807 52.2366 71.4844C54.0522 73.2881 56.5147 74.3014 59.0824 74.3014C61.65 74.3014 64.1125 73.2881 65.9281 71.4844C67.7437 69.6807 68.7637 67.2344 68.7637 64.6836C68.7642 64.2555 68.7348 63.8279 68.6755 63.4039H69.7519C70.0411 63.3833 70.3117 63.2546 70.5093 63.0437C70.7069 62.8329 70.8167 62.5555 70.8167 62.2674C70.8167 61.9793 70.7069 61.702 70.5093 61.4911C70.3117 61.2802 70.0411 61.1515 69.7519 61.1309" fill="#266ACE"/>
</g>
</g>
<defs>
<clipPath id="clip0_6223_23623">
<rect width="117" height="114" fill="white" transform="translate(0.5)"/>
</clipPath>
</defs>
</svg>
