<svg width="134" height="90" viewBox="0 0 134 90" fill="none" xmlns="http://www.w3.org/2000/svg">
<g clip-path="url(#clip0_6223_23603)">
<mask id="mask0_6223_23603" style="mask-type:luminance" maskUnits="userSpaceOnUse" x="0" y="0" width="134" height="90">
<path d="M134 0H0V90H134V0Z" fill="white"/>
</mask>
<g mask="url(#mask0_6223_23603)">
<path d="M57.4286 77.1427H0V55.7141C0 51.1676 1.79274 46.8072 4.98383 43.5923C8.17493 40.3774 12.503 38.5713 17.0159 38.5713H40.4127C44.9256 38.5713 49.2536 40.3774 52.4447 43.5923C55.6358 46.8072 57.4286 51.1676 57.4286 55.7141V77.1427Z" fill="#5198ED"/>
<path d="M134 77.1427H76.5714V55.7141C76.5714 51.1676 78.3642 46.8072 81.5552 43.5923C84.7463 40.3774 89.0744 38.5713 93.5873 38.5713H116.984C121.497 38.5713 125.825 40.3774 129.016 43.5923C132.207 46.8072 134 51.1676 134 55.7141V77.1427Z" fill="#91C8FF"/>
<path d="M95.7142 90.0001H38.2856V68.5716C38.2856 64.025 40.0784 59.6646 43.2695 56.4497C46.4606 53.2348 50.7886 51.4287 55.3015 51.4287H78.6983C83.2112 51.4287 87.5393 53.2348 90.7304 56.4497C93.9215 59.6646 95.7142 64.025 95.7142 68.5716V90.0001Z" fill="#266ACE"/>
<path d="M79.7619 25.7141C79.7619 28.257 79.0134 30.7428 77.6111 32.8571C76.2088 34.9715 74.2157 36.6194 71.8837 37.5925C69.5518 38.5657 66.9858 38.8203 64.5102 38.3242C62.0347 37.8281 59.7607 36.6036 57.9759 34.8055C56.1911 33.0073 54.9757 30.7164 54.4833 28.2224C53.9908 25.7283 54.2436 23.1432 55.2095 20.7939C56.1754 18.4445 57.8111 16.4365 59.9098 15.0238C62.0085 13.611 64.4759 12.8569 66.9999 12.8569C70.3846 12.8569 73.6307 14.2115 76.024 16.6227C78.4173 19.0339 79.7619 22.3041 79.7619 25.7141Z" fill="#266ACE"/>
<path d="M41.4762 12.8571C41.4762 15.4 40.7277 17.8858 39.3254 20.0002C37.9231 22.1145 35.93 23.7625 33.5981 24.7356C31.2661 25.7087 28.7001 25.9633 26.2246 25.4672C23.749 24.9711 21.4751 23.7466 19.6903 21.9485C17.9055 20.1504 16.69 17.8595 16.1976 15.3654C15.7052 12.8714 15.9579 10.2863 16.9238 7.93693C17.8898 5.58759 19.5255 3.57958 21.6242 2.16682C23.7229 0.754058 26.1902 0 28.7143 0C32.099 0 35.345 1.35459 37.7383 3.76577C40.1317 6.17695 41.4762 9.44722 41.4762 12.8571Z" fill="#5198ED"/>
<path d="M118.048 12.8571C118.048 15.4 117.299 17.8858 115.897 20.0002C114.495 22.1145 112.501 23.7625 110.169 24.7356C107.838 25.7087 105.272 25.9633 102.796 25.4672C100.32 24.9711 98.0465 23.7466 96.2617 21.9485C94.4769 20.1504 93.2614 17.8595 92.769 15.3654C92.2766 12.8714 92.5293 10.2863 93.4953 7.93693C94.4612 5.58759 96.0969 3.57958 98.1956 2.16682C100.294 0.754058 102.762 0 105.286 0C108.67 0 111.916 1.35459 114.31 3.76577C116.703 6.17695 118.048 9.44722 118.048 12.8571Z" fill="#91C8FF"/>
</g>
</g>
<defs>
<clipPath id="clip0_6223_23603">
<rect width="134" height="90" fill="white"/>
</clipPath>
</defs>
</svg>
