<svg width="91" height="78" viewBox="0 0 91 78" fill="none" xmlns="http://www.w3.org/2000/svg">
<mask id="mask0_6223_23549" style="mask-type:luminance" maskUnits="userSpaceOnUse" x="0" y="0" width="91" height="78">
<path d="M91 0H0V78H91V0Z" fill="white"/>
</mask>
<g mask="url(#mask0_6223_23549)">
<path d="M34.851 55.5234V74.0754C34.851 74.5865 34.851 75.0975 34.9178 75.5524H56.0822C56.1233 75.0975 56.149 74.6018 56.149 74.0754V55.5234H34.851Z" fill="#91C8FF"/>
<path d="M3.26879 0H87.7313C88.5983 0 89.4297 0.342455 90.0427 0.952028C90.6557 1.5616 91.0001 2.38836 91.0001 3.25043V57.7768C91.0001 58.6389 90.6557 59.4657 90.0427 60.0752C89.4297 60.6848 88.5983 61.0273 87.7313 61.0273H3.27393C2.84226 61.0273 2.41486 60.9424 2.01631 60.7775C1.61776 60.6126 1.25593 60.371 0.951658 60.0665C0.647381 59.762 0.40666 59.4007 0.243347 59.0034C0.0800342 58.6061 -0.00264606 58.1805 6.45525e-05 57.7513V3.25043C6.45525e-05 2.38836 0.344447 1.5616 0.957451 0.952028C1.57046 0.342455 2.40187 0 3.26879 0Z" fill="#5198ED"/>
<path d="M0 45.2861V57.7768C0 58.6388 0.344382 59.4656 0.957387 60.0752C1.57039 60.6847 2.4018 61.0272 3.26872 61.0272H87.7313C88.5982 61.0272 89.4296 60.6847 90.0426 60.0752C90.6556 59.4656 91 58.6388 91 57.7768V45.2861H0Z" fill="#C0D7F5"/>
<path d="M29.9376 74.7344H61.2937" stroke="#C5E1F9" stroke-width="12.78"/>
<path d="M71.6293 45.2551V7.93652H79.5287V45.2551" fill="#EAF4FE"/>
<path d="M55.8304 45.256V13.8301H63.7299V45.256" fill="#EAF4FE"/>
<path d="M40.0264 45.2552V27.5771H47.9258V45.2552" fill="#EAF4FE"/>
<path d="M24.2277 45.2554V23.6523H32.1271V45.2554" fill="#EAF4FE"/>
<path d="M8.42358 45.256V39.3633H16.323V45.256" fill="#EAF4FE"/>
</g>
</svg>
