<svg width="84" height="84" viewBox="0 0 84 84" fill="none" xmlns="http://www.w3.org/2000/svg">
<g clip-path="url(#clip0_6223_23575)">
<path d="M83.9719 1.70503C83.9719 0.259388 83.4601 -0.00913432 82.1589 0.000232666C75.2942 0.0564346 68.4294 0.0283325 61.5802 0.0283325C54.9838 0.0283325 48.3842 0.00959851 41.7846 0.0283325C39.1876 0.0400014 36.5964 0.276097 34.0399 0.733982C26.7931 2.00252 20.0394 5.25561 14.5283 10.1322C5.85062 17.7194 0.96726 27.1988 0.137245 38.6859C-0.605399 48.949 1.96577 58.3566 8.08479 66.6869C8.74631 67.5893 8.58717 68.0451 7.86949 68.7383C5.6946 70.8334 3.54467 72.9409 1.4946 75.1516C-0.555477 77.3622 -0.461864 80.3971 1.57885 82.4328C3.61956 84.4686 6.68687 84.5466 8.87112 82.514C11.1147 80.4252 13.2802 78.252 15.4239 76.0602C16.0479 75.4076 16.4942 75.3358 17.2524 75.8915C22.557 79.7851 28.4389 82.4141 34.9854 83.3851C43.8254 84.7121 52.4937 84.0096 60.4725 79.8257C75.5282 71.9293 83.6286 59.4025 83.897 42.261C84.1092 28.76 83.9188 15.2247 83.9719 1.70503ZM59.5207 43.5911C51.7615 50.4831 44.0126 57.3907 36.2741 64.314C35.3692 65.1195 34.3332 65.7658 33.2661 64.7011C32.3112 63.7457 32.7637 62.7497 33.4751 61.7786C37.0635 56.8922 40.6207 51.9839 44.4245 46.7602L28.8227 45.2209C27.793 45.1179 26.757 45.0305 25.7304 44.9087C24.7038 44.7869 23.8426 44.2592 23.5306 43.2039C23.3679 42.7344 23.355 42.226 23.4936 41.7489C23.6322 41.2718 23.9156 40.8496 24.3044 40.5405C32.1615 33.5257 40.0102 26.4974 47.8506 19.4555C48.715 18.6811 49.7072 18.1784 50.7463 19.162C51.7854 20.1455 51.2331 21.0635 50.5997 21.944C47.3389 26.4807 44.0438 31.005 40.7955 35.5667C40.5022 35.9788 39.797 36.3816 40.1714 37.0154C40.4835 37.5025 41.1075 37.3277 41.6193 37.3901C47.0892 37.9115 52.5624 38.4111 58.0323 38.9513C59.1588 39.0637 60.1791 39.4883 60.5286 40.7154C60.8875 41.8925 60.4319 42.7824 59.5207 43.5911Z" fill="#5197EC"/>
</g>
<defs>
<clipPath id="clip0_6223_23575">
<rect width="84" height="84" fill="white"/>
</clipPath>
</defs>
</svg>
