<svg width="63" height="88" viewBox="0 0 63 88" fill="none" xmlns="http://www.w3.org/2000/svg">
<mask id="mask0_6223_23495" style="mask-type:luminance" maskUnits="userSpaceOnUse" x="0" y="0" width="63" height="88">
<path d="M62.3333 0H0.333252V88H62.3333V0Z" fill="white"/>
</mask>
<g mask="url(#mask0_6223_23495)">
<path d="M27.1999 73.6747C23.6481 72.433 19.8332 72.1176 16.1226 72.7589C14.9715 72.9807 13.8386 73.2868 12.7333 73.6747C3.90859 76.8877 0.767252 84.7873 0.333252 85.9538V68.1696C0.333091 65.429 1.02771 62.7321 2.35342 60.3263C3.14997 58.987 4.09438 57.7395 5.16925 56.6068C6.86092 54.658 8.69857 52.8383 10.6666 51.1631L27.1999 73.6747Z" fill="#266ACE"/>
<path d="M35.4666 73.6747C39.0184 72.433 42.8333 72.1176 46.5439 72.7589C47.6948 72.9814 48.8277 73.2875 49.9332 73.6747C58.7579 76.8877 61.8992 84.7873 62.3332 85.9538V68.1696C62.3334 65.429 61.6388 62.7321 60.313 60.3263C59.5165 58.987 58.5721 57.7395 57.4972 56.6068C55.8056 54.658 53.9679 52.8383 51.9999 51.1631L35.4666 73.6747Z" fill="#266ACE"/>
<path d="M31.3333 0L27.9853 1.80605C22.1185 4.97524 17.2221 9.65097 13.8109 15.3418C10.3998 21.0326 8.5997 27.5282 8.59998 34.146V43.6214C8.5997 50.2392 10.3998 56.7349 13.8109 62.4257C17.2221 68.1165 22.1185 72.7922 27.9853 75.9614L31.3333 77.7674L34.6813 75.9614C40.5481 72.7922 45.4445 68.1165 48.8557 62.4257C52.2669 56.7349 54.0669 50.2392 54.0666 43.6214V34.146C54.0669 27.5282 52.2669 21.0326 48.8557 15.3418C45.4445 9.65097 40.5481 4.97524 34.6813 1.80605L31.3333 0Z" fill="#5198ED"/>
<path d="M31.3332 42.9771C28.8807 42.9771 26.4833 42.2569 24.4442 40.9077C22.405 39.5585 20.8157 37.6407 19.8771 35.397C18.9386 33.1533 18.693 30.6844 19.1715 28.3025C19.65 25.9206 20.8309 23.7327 22.5651 22.0154C24.2993 20.2981 26.5087 19.1287 28.9141 18.6549C31.3195 18.1811 33.8127 18.4243 36.0785 19.3536C38.3443 20.283 40.2809 21.8569 41.6435 23.8761C43.006 25.8954 43.7332 28.2694 43.7332 30.698C43.7332 33.9546 42.4268 37.0779 40.1014 39.3806C37.7759 41.6834 34.6219 42.9771 31.3332 42.9771Z" fill="#91C8FF"/>
<path d="M31.3333 88.0003L31.0129 87.3659C29.8661 85.0923 29.2683 82.5859 29.2666 80.0445V53.2096C29.2666 52.6668 29.4843 52.1463 29.8719 51.7625C30.2595 51.3787 30.7852 51.1631 31.3333 51.1631C31.8814 51.1631 32.407 51.3787 32.7946 51.7625C33.1822 52.1463 33.3999 52.6668 33.3999 53.2096V80.0445C33.3983 82.5859 32.8005 85.0923 31.6536 87.3659L31.3333 88.0003Z" fill="#91C8FF"/>
<path d="M46.792 12.2791H15.8746C19.0917 7.95371 23.2252 4.37744 27.9853 1.80093L31.3333 0L34.6813 1.80093C39.4414 4.37744 43.5749 7.95371 46.792 12.2791Z" fill="#91C8FF"/>
<path d="M39.5999 30.6978C39.5999 32.3168 39.115 33.8995 38.2067 35.2457C37.2983 36.5919 36.0073 37.6411 34.4967 38.2607C32.9862 38.8803 31.324 39.0424 29.7205 38.7265C28.1169 38.4107 26.6439 37.631 25.4878 36.4862C24.3317 35.3413 23.5443 33.8827 23.2254 32.2948C22.9064 30.7068 23.0701 29.0609 23.6958 27.5651C24.3215 26.0693 25.381 24.7908 26.7405 23.8913C28.0999 22.9918 29.6982 22.5117 31.3332 22.5117C33.5257 22.5117 35.6283 23.3742 37.1786 24.9094C38.7289 26.4445 39.5999 28.5267 39.5999 30.6978Z" fill="#C0D7F5"/>
</g>
</svg>
