<svg width="69" height="91" viewBox="0 0 69 91" fill="none" xmlns="http://www.w3.org/2000/svg">
<g clip-path="url(#clip0_6223_23577)">
<path d="M60.3915 58.7727C60.3915 58.1711 60.3711 57.6107 60.8252 57.0686C68.1758 48.2895 70.4125 38.17 68.1689 27.0624C66.1775 17.1808 60.4483 9.86105 52.0123 4.64576C46.3354 1.14602 40.0816 -0.157802 33.4759 0.00689113C24.6312 0.235632 16.981 3.3122 10.6046 9.52938C1.70768 18.2078 -1.3715 28.8099 0.54504 40.9652C1.47606 46.869 3.98755 52.1186 7.83198 56.6912C8.40839 57.3499 8.70732 58.209 8.66535 59.0861C8.62221 64.1527 8.64492 69.2216 8.64492 74.2882V89.7191C8.64492 91.1716 8.69034 91.2059 9.99376 90.7667C17.837 88.1255 25.6796 85.4797 33.5213 82.8294C34.125 82.6066 34.7864 82.5993 35.3947 82.8088C40.7947 84.6387 46.1961 86.461 51.599 88.2757C54.1741 89.1404 56.7605 89.9753 59.3197 90.8651C60.1145 91.1418 60.471 91 60.387 90.1057C60.362 89.8403 60.387 89.5727 60.387 89.3051C60.3885 79.123 60.39 68.9456 60.3915 58.7727ZM34.4842 60.8451C20.1601 60.8451 8.55182 48.7539 8.56545 34.7C8.57907 20.6462 20.2759 8.3811 34.5341 8.68303C48.4949 8.45429 60.4415 20.1956 60.3961 34.8167C60.3597 49.2342 48.5585 60.8405 34.4842 60.8451Z" fill="#5197EC"/>
<path d="M44.0214 50.5148C41.1921 48.3097 38.3445 46.1344 35.5446 43.8813C34.7975 43.2797 34.3048 43.1951 33.5191 43.8241C30.8259 45.9697 28.0692 48.0353 25.3443 50.1282C25.1694 50.2632 24.9832 50.3776 24.5154 50.7001C25.1967 48.4676 25.7734 46.537 26.3616 44.6064C26.8793 42.8977 27.3471 41.1753 27.9511 39.4941C28.2531 38.6432 27.9875 38.1834 27.3562 37.6824C24.8402 35.6764 22.3605 33.6337 19.849 31.6071C19.7538 31.5468 19.662 31.4811 19.5742 31.4104C19.3471 31.1702 18.8612 30.9918 18.9452 30.6692C19.0678 30.1912 19.5878 30.4085 19.9307 30.4085C23.1098 30.3902 26.2889 30.3765 29.468 30.4085C30.3082 30.4085 30.7283 30.1797 30.994 29.2945C32.0658 25.7307 33.242 22.2035 34.4229 18.5254C35.1223 19.557 35.2653 20.6687 35.6082 21.6843C36.4825 24.2737 37.2818 26.8882 38.0697 29.505C38.2968 30.2232 38.6851 30.4199 39.3913 30.4199C42.6454 30.3879 45.8971 30.4016 49.1557 30.4199C49.4736 30.4199 49.955 30.2369 50.0822 30.5938C50.2388 31.0284 49.7166 31.1748 49.4418 31.3966C46.8713 33.4553 44.3053 35.514 41.7211 37.5543C40.9604 38.1491 40.6698 38.6683 41.0263 39.7342C42.2071 43.2523 43.2153 46.8252 44.2917 50.3821L44.0214 50.5148Z" fill="#5197EC"/>
</g>
<defs>
<clipPath id="clip0_6223_23577">
<rect width="69" height="91" fill="white"/>
</clipPath>
</defs>
</svg>
