<svg width="71" height="88" viewBox="0 0 71 88" fill="none" xmlns="http://www.w3.org/2000/svg">
<path d="M71 14.6665V85.9046C71 86.4603 70.78 86.9932 70.3884 87.3862C69.9968 87.7791 69.4656 87.9999 68.9118 87.9999H2.08824C1.5344 87.9999 1.00328 87.7791 0.61166 87.3862C0.22004 86.9932 0 86.4603 0 85.9046V14.6665C0 14.1108 0.22004 13.5779 0.61166 13.185C1.00328 12.792 1.5344 12.5713 2.08824 12.5713H8.35294L10.4412 18.857H60.5588L62.6471 12.5713H68.9118C69.4656 12.5713 69.9968 12.792 70.3884 13.185C70.78 13.5779 71 14.1108 71 14.6665Z" fill="#91C8FF"/>
<path d="M8.35352 12.5713V77.5237C8.35352 78.0794 8.57356 78.6123 8.96518 79.0052C9.3568 79.3982 9.88792 79.6189 10.4418 79.6189H60.5594C61.1132 79.6189 61.6444 79.3982 62.036 79.0052C62.4277 78.6123 62.6476 78.0794 62.6476 77.5237V12.5713H8.35352Z" fill="#EAF4FE"/>
<path d="M41.7641 12.5714H29.2347C28.6809 12.5714 28.1498 12.3507 27.7581 11.9577C27.3665 11.5648 27.1465 11.0319 27.1465 10.4762V8.38095C27.1465 6.15819 28.0266 4.02645 29.5931 2.45472C31.1595 0.882984 33.2841 0 35.4994 0C37.7148 0 39.8394 0.882984 41.4059 2.45472C42.9723 4.02645 43.8524 6.15819 43.8524 8.38095V10.4762C43.8524 11.0319 43.6324 11.5648 43.2408 11.9577C42.8492 12.3507 42.318 12.5714 41.7641 12.5714ZM31.323 8.38095H39.6759C39.6759 7.26957 39.2359 6.2037 38.4526 5.41783C37.6694 4.63197 36.6071 4.19048 35.4994 4.19048C34.3918 4.19048 33.3295 4.63197 32.5463 5.41783C31.763 6.2037 31.323 7.26957 31.323 8.38095Z" fill="#5198ED"/>
<path d="M50.1185 44H20.8832C20.3293 44 19.7982 43.7793 19.4066 43.3864C19.015 42.9934 18.7949 42.4605 18.7949 41.9048C18.7949 41.3491 19.015 40.8162 19.4066 40.4232C19.7982 40.0303 20.3293 39.8096 20.8832 39.8096H50.1185C50.6723 39.8096 51.2035 40.0303 51.5951 40.4232C51.9867 40.8162 52.2067 41.3491 52.2067 41.9048C52.2067 42.4605 51.9867 42.9934 51.5951 43.3864C51.2035 43.7793 50.6723 44 50.1185 44Z" fill="#5198ED"/>
<path d="M50.1185 56.5713H20.8832C20.3293 56.5713 19.7982 56.3506 19.4066 55.9577C19.015 55.5647 18.7949 55.0318 18.7949 54.4761C18.7949 53.9204 19.015 53.3875 19.4066 52.9945C19.7982 52.6016 20.3293 52.3809 20.8832 52.3809H50.1185C50.6723 52.3809 51.2035 52.6016 51.5951 52.9945C51.9867 53.3875 52.2067 53.9204 52.2067 54.4761C52.2067 55.0318 51.9867 55.5647 51.5951 55.9577C51.2035 56.3506 50.6723 56.5713 50.1185 56.5713Z" fill="#5198ED"/>
<path d="M41.7655 69.1426H20.8832C20.3293 69.1426 19.7982 68.9219 19.4066 68.5289C19.015 68.136 18.7949 67.6031 18.7949 67.0474C18.7949 66.4917 19.015 65.9588 19.4066 65.5658C19.7982 65.1729 20.3293 64.9521 20.8832 64.9521H41.7655C42.3193 64.9521 42.8505 65.1729 43.2421 65.5658C43.6338 65.9588 43.8537 66.4917 43.8537 67.0474C43.8537 67.6031 43.6338 68.136 43.2421 68.5289C42.8505 68.9219 42.3193 69.1426 41.7655 69.1426Z" fill="#5198ED"/>
<path d="M50.1185 31.4288H20.8832C20.3293 31.4288 19.7982 31.208 19.4066 30.8151C19.015 30.4221 18.7949 29.8892 18.7949 29.3335C18.7949 28.7778 19.015 28.2449 19.4066 27.852C19.7982 27.459 20.3293 27.2383 20.8832 27.2383H50.1185C50.6723 27.2383 51.2035 27.459 51.5951 27.852C51.9867 28.2449 52.2067 28.7778 52.2067 29.3335C52.2067 29.8892 51.9867 30.4221 51.5951 30.8151C51.2035 31.208 50.6723 31.4288 50.1185 31.4288Z" fill="#5198ED"/>
<path d="M48.0299 8.38086H22.971C21.8177 8.38086 20.8828 9.31893 20.8828 10.4761V14.6666C20.8828 15.8237 21.8177 16.7618 22.971 16.7618H48.0299C49.1832 16.7618 50.1181 15.8237 50.1181 14.6666V10.4761C50.1181 9.31893 49.1832 8.38086 48.0299 8.38086Z" fill="#266ACE"/>
</svg>
